<?xml version="1.0" encoding="UTF-8" standalone="no"?>
<svg
   xmlns="http://www.w3.org/2000/svg"
   id="svg8"
   version="1.1"
   viewBox="0 0 145.52079 145.52082"
   height="549.99994"
   width="549.99994">
  <defs
     id="defs2" />
  <g
     transform="translate(-55.447887,-209.67792)"
     id="layer1">
    <rect
       ry="72.760406"
       y="209.67792"
       x="55.447884"
       height="145.52081"
       width="145.52081"
       id="rect845"
       style="opacity:1;fill:#25262a;fill-opacity:1;stroke:none;stroke-width:1.74095821;stroke-linecap:round;stroke-miterlimit:4;stroke-dasharray:none;stroke-opacity:1" />
    <g
       transform="translate(-9.4855263,119.53314)"
       id="g4786">
      <g
         transform="translate(110.06666,-8.3950186)"
         id="g836">
        <g
           transform="translate(-146.84374,1.8520832)"
           id="g847">
          <g
             id="g4696"
             transform="translate(97.761276,171.3773)">
            <text
               transform="scale(0.88600689,1.1286594)"
               id="text12"
               y="24.698036"
               x="47.016281"
               style="font-style:normal;font-variant:normal;font-weight:bold;font-stretch:normal;font-size:14.40251827px;line-height:1.25;font-family:Duepuntozero;-inkscape-font-specification:'Duepuntozero, Bold';font-variant-ligatures:normal;font-variant-caps:normal;font-variant-numeric:normal;font-feature-settings:normal;text-align:start;letter-spacing:0px;word-spacing:0px;writing-mode:lr-tb;text-anchor:start;fill:#51ffa0;fill-opacity:1;stroke:none;stroke-width:0.36006293;"
               xml:space="preserve"><tspan
                 style="font-style:normal;font-variant:normal;font-weight:bold;font-stretch:normal;font-size:14.40251827px;font-family:Duepuntozero;-inkscape-font-specification:'Duepuntozero, Bold';font-variant-ligatures:normal;font-variant-caps:normal;font-variant-numeric:normal;font-feature-settings:normal;text-align:start;writing-mode:lr-tb;text-anchor:start;fill:#51ffa0;fill-opacity:1;stroke-width:0.36006293;"
                 y="24.698036"
                 x="47.016281"
                 id="tspan10">SADIQ SALAU</tspan></text>
          </g>
          <g
             id="g4763"
             style="stroke-width:1;stroke-miterlimit:4;stroke-dasharray:none"
             transform="translate(56.538314,153.53541)">
            <g
               id="g4775"
               transform="translate(61.647916,-0.26458333)">
              <path
                 style="fill:none;stroke:#ed1c24;stroke-width:2.64583302;stroke-linecap:round;stroke-linejoin:miter;stroke-miterlimit:4;stroke-dasharray:none;stroke-opacity:1"
                 d="m 60.990905,-7.8609853 c -1.564298,-0.856453 -3.463863,-1.079616 -5.184063,-0.6090295 -1.720199,0.4705866 -3.241644,1.6296182 -4.152142,3.1630888 -0.910499,1.5334706 -1.199787,3.424095 -0.789492,5.15966318 0.410295,1.73556822 1.51555,3.29651692 3.016327,4.25995222 0.54045,0.3469459 1.125878,0.61735 1.683798,0.9354433 2.518883,1.4361211 4.450235,3.9057124 5.136642,6.7228143 0.686407,2.817102 0.08684,5.941807 -1.6755,8.244279 -1.275883,1.666925 -3.12996,2.88237 -5.167441,3.387531 -2.037481,0.50516 -4.244611,0.296625 -6.151424,-0.581201"
                 id="path4706" />
              <path
                 style="fill:none;stroke:#48d288;stroke-width:2.64583302;stroke-linecap:round;stroke-linejoin:miter;stroke-miterlimit:4;stroke-dasharray:none;stroke-opacity:1"
                 d="m 57.546874,-0.39166556 c 2.551274,1.08422303 4.797006,2.87722706 6.419198,5.12512216 1.622193,2.2478951 2.616182,4.9442183 2.841219,7.7071694 0.242834,2.98146 -0.41389,6.030352 -1.86264,8.647449 -1.44875,2.617097 -3.683892,4.792221 -6.339443,6.169218"
                 id="path4747" />
              <path
                 style="fill:none;stroke:#f79f0f;stroke-width:2.64583302;stroke-linecap:round;stroke-linejoin:miter;stroke-miterlimit:4;stroke-dasharray:none;stroke-opacity:1"
                 d="m 45.719793,-6.6215233 c 0.812353,-1.9150428 2.101445,-3.6257237 3.718388,-4.9344637 1.779787,-1.440544 3.95403,-2.38871 6.220698,-2.712785"
                 id="path4751" />
              <path
                 style="fill:none;stroke:#71d1ea;stroke-width:2.64583302;stroke-linecap:round;stroke-linejoin:miter;stroke-miterlimit:4;stroke-dasharray:none;stroke-opacity:1"
                 d="m 49.765584,17.489529 c 0.689544,0.210258 1.434596,0.235402 2.136746,0.07211 0.702151,-0.163291 1.359653,-0.51461 1.885662,-1.007554 0.546846,-0.512471 0.950631,-1.17891 1.137233,-1.904753 0.186602,-0.725842 0.153304,-1.508874 -0.108245,-2.211198 -0.212507,-0.570634 -0.569532,-1.080537 -0.994917,-1.516231 -0.425385,-0.435695 -0.91862,-0.800168 -1.43165,-1.1281648 C 51.364352,9.1377455 50.247132,8.6173658 49.297865,7.8544625 48.587454,7.2835221 47.981972,6.5824385 47.520521,5.7964874"
                 id="path4755" />
            </g>
          </g>
        </g>
      </g>
    </g>
  </g>
</svg>
